<svg width="837" height="109" viewBox="0 0 837 109" fill="none" xmlns="http://www.w3.org/2000/svg" xmlns:xlink="http://www.w3.org/1999/xlink">
    <symbol id="logo-symbol-wordmark">
        <path d="M169.278 86.8255L190.227 24.9367H173.348L160.3 67.1935H160.06L147.012 24.9367H129.176L150.364 86.8255H169.278Z" fill="#D4D4D4"/>
        <path d="M235.899 49.2373H208.246C208.326 48.0403 208.566 46.6836 208.965 45.1673C209.443 43.651 210.202 42.2145 211.239 40.8578C212.356 39.5011 213.793 38.3839 215.549 37.506C217.384 36.5483 219.658 36.0695 222.372 36.0695C226.522 36.0695 229.594 37.1868 231.589 39.4213C233.664 41.6559 235.101 44.9279 235.899 49.2373ZM208.246 60.011H252.897C253.217 55.2227 252.817 50.6339 251.7 46.2447C250.583 41.8554 248.747 37.9449 246.194 34.5133C243.72 31.0817 240.528 28.3683 236.617 26.3732C232.707 24.2983 228.118 23.2608 222.851 23.2608C218.142 23.2608 213.833 24.0987 209.922 25.7747C206.092 27.4506 202.78 29.7649 199.987 32.7177C197.193 35.5907 195.039 39.0223 193.522 43.0125C192.006 47.0028 191.248 51.3123 191.248 55.941C191.248 60.7293 191.966 65.1185 193.403 69.1088C194.919 73.099 197.034 76.5307 199.747 79.4036C202.461 82.2766 205.772 84.5112 209.683 86.1073C213.593 87.6236 217.983 88.3817 222.851 88.3817C229.874 88.3817 235.859 86.7856 240.807 83.5934C245.755 80.4012 249.426 75.0942 251.82 67.6723H236.856C236.298 69.5876 234.782 71.4231 232.308 73.1789C229.834 74.8548 226.881 75.6927 223.449 75.6927C218.661 75.6927 214.99 74.4557 212.436 71.9818C209.882 69.5078 208.486 65.5176 208.246 60.011Z" fill="#D4D4D4"/>
        <path d="M259.986 24.9367V86.8255H276.985V58.9337C276.985 56.1405 277.264 53.5468 277.823 51.1527C278.381 48.7585 279.299 46.6836 280.576 44.9279C281.933 43.0924 283.688 41.6559 285.843 40.6184C287.998 39.5809 290.631 39.0622 293.744 39.0622C294.781 39.0622 295.859 39.142 296.976 39.3016C298.093 39.3814 299.051 39.5011 299.849 39.6607V23.8593C298.492 23.4603 297.255 23.2608 296.138 23.2608C293.983 23.2608 291.908 23.58 289.913 24.2185C287.918 24.8569 286.043 25.7747 284.287 26.9717C282.531 28.089 280.975 29.4856 279.618 31.1615C278.262 32.7576 277.184 34.5133 276.386 36.4286H276.147V24.9367H259.986Z" fill="#D4D4D4"/>
        <path d="M320.998 15.3601V1.35431H303.999V15.3601H320.998ZM303.999 24.9367V86.8255H320.998V24.9367H303.999Z" fill="#D4D4D4"/>
        <path d="M335.101 36.3089V86.8255H352.099V36.3089H363.831V24.9367H352.099V21.2258C352.099 18.672 352.578 16.8764 353.536 15.8389C354.573 14.7217 356.249 14.163 358.564 14.163C360.718 14.163 362.793 14.2827 364.788 14.5221V1.83314C363.352 1.75334 361.875 1.67353 360.359 1.59373C358.843 1.43412 357.327 1.35431 355.81 1.35431C348.867 1.35431 343.68 3.11002 340.248 6.62145C336.817 10.1329 335.101 14.6418 335.101 20.1484V24.9367H324.926V36.3089H335.101ZM374.126 24.9367V86.8255H391.124V24.9367H374.126ZM391.124 15.3601V1.35431H374.126V15.3601H391.124Z" fill="#D4D4D4"/>
        <path d="M443.236 49.2373H415.584C415.663 48.0403 415.903 46.6836 416.302 45.1673C416.781 43.651 417.539 42.2145 418.576 40.8578C419.694 39.5011 421.13 38.3839 422.886 37.506C424.721 36.5483 426.996 36.0695 429.709 36.0695C433.859 36.0695 436.931 37.1868 438.927 39.4213C441.002 41.6559 442.438 44.9279 443.236 49.2373ZM415.584 60.011H460.235C460.554 55.2227 460.155 50.6339 459.037 46.2447C457.92 41.8554 456.085 37.9449 453.531 34.5133C451.057 31.0817 447.865 28.3683 443.954 26.3732C440.044 24.2983 435.455 23.2608 430.188 23.2608C425.479 23.2608 421.17 24.0987 417.26 25.7747C413.429 27.4506 410.117 29.7649 407.324 32.7177C404.531 35.5907 402.376 39.0223 400.86 43.0125C399.343 47.0028 398.585 51.3123 398.585 55.941C398.585 60.7293 399.303 65.1185 400.74 69.1088C402.256 73.099 404.371 76.5307 407.084 79.4036C409.798 82.2766 413.11 84.5112 417.02 86.1073C420.931 87.6236 425.32 88.3817 430.188 88.3817C437.211 88.3817 443.196 86.7856 448.144 83.5934C453.092 80.4012 456.763 75.0942 459.157 67.6723H444.194C443.635 69.5876 442.119 71.4231 439.645 73.1789C437.171 74.8548 434.218 75.6927 430.786 75.6927C425.998 75.6927 422.327 74.4557 419.773 71.9818C417.22 69.5078 415.823 65.5176 415.584 60.011Z" fill="#D4D4D4"/>
        <path d="M511.256 55.7015C511.256 58.2553 511.017 60.7293 510.538 63.1234C510.059 65.5176 509.261 67.6723 508.144 69.5876C507.026 71.4231 505.51 72.8995 503.595 74.0168C501.759 75.1341 499.445 75.6927 496.652 75.6927C494.018 75.6927 491.744 75.1341 489.829 74.0168C487.993 72.8197 486.437 71.3034 485.16 69.4679C483.963 67.5526 483.085 65.3979 482.526 63.0037C481.968 60.6096 481.688 58.2154 481.688 55.8213C481.688 53.2675 481.928 50.8334 482.407 48.5191C482.965 46.1249 483.803 44.0101 484.92 42.1746C486.118 40.3391 487.674 38.8627 489.589 37.7454C491.504 36.6281 493.859 36.0695 496.652 36.0695C499.445 36.0695 501.759 36.6281 503.595 37.7454C505.43 38.8627 506.907 40.3391 508.024 42.1746C509.221 43.9303 510.059 46.0052 510.538 48.3994C511.017 50.7137 511.256 53.1478 511.256 55.7015ZM511.496 78.9248V86.8255H527.656V1.35431H510.658V32.4783H510.418C508.503 29.4457 505.869 27.1712 502.518 25.6549C499.245 24.0588 495.774 23.2608 492.103 23.2608C487.554 23.2608 483.564 24.1786 480.132 26.0141C476.701 27.7698 473.828 30.124 471.513 33.0768C469.279 36.0296 467.563 39.4612 466.366 43.3717C465.249 47.2023 464.69 51.1926 464.69 55.3424C464.69 59.6519 465.249 63.8018 466.366 67.792C467.563 71.7823 469.279 75.3336 471.513 78.446C473.828 81.4786 476.74 83.9126 480.252 85.7481C483.763 87.5039 487.833 88.3817 492.462 88.3817C496.532 88.3817 500.163 87.6635 503.355 86.227C506.627 84.7107 509.261 82.2766 511.256 78.9248H511.496Z" fill="#D4D4D4"/>
        <path d="M538.23 68.3906V86.8255H557.024V68.3906H538.23Z" fill="#D4D4D4"/>
        <path d="M609.973 46.7235H626.612C626.373 42.7332 625.415 39.3016 623.739 36.4286C622.063 33.4758 619.869 31.0418 617.155 29.1265C614.522 27.1313 611.489 25.6549 608.058 24.6973C604.706 23.7396 601.194 23.2608 597.523 23.2608C592.495 23.2608 588.026 24.0987 584.116 25.7747C580.206 27.4506 576.894 29.8048 574.18 32.8374C571.467 35.7902 569.392 39.3415 567.955 43.4914C566.599 47.5614 565.92 51.9906 565.92 56.7789C565.92 61.4076 566.679 65.6772 568.195 69.5876C569.711 73.4183 571.826 76.7302 574.539 79.5234C577.253 82.3165 580.525 84.5112 584.355 86.1073C588.266 87.6236 592.535 88.3817 597.164 88.3817C605.384 88.3817 612.128 86.227 617.395 81.9175C622.662 77.608 625.854 71.3433 626.971 63.1234H610.571C610.013 66.9541 608.616 70.0266 606.382 72.3409C604.227 74.5754 601.114 75.6927 597.044 75.6927C594.411 75.6927 592.176 75.0942 590.341 73.8971C588.505 72.7 587.029 71.1837 585.912 69.3482C584.874 67.4329 584.116 65.3181 583.637 63.0037C583.158 60.6894 582.919 58.4149 582.919 56.1804C582.919 53.866 583.158 51.5517 583.637 49.2373C584.116 46.8432 584.914 44.6885 586.031 42.7731C587.228 40.778 588.745 39.1819 590.58 37.9848C592.416 36.7079 594.69 36.0695 597.404 36.0695C604.666 36.0695 608.856 39.6208 609.973 46.7235Z" fill="#D4D4D4"/>
        <path d="M648.665 55.941C648.665 53.467 648.904 51.033 649.383 48.6388C649.862 46.2447 650.66 44.1298 651.777 42.2943C652.974 40.4588 654.53 38.9824 656.446 37.8651C658.361 36.668 660.755 36.0695 663.628 36.0695C666.501 36.0695 668.895 36.668 670.81 37.8651C672.806 38.9824 674.362 40.4588 675.479 42.2943C676.676 44.1298 677.514 46.2447 677.993 48.6388C678.472 51.033 678.711 53.467 678.711 55.941C678.711 58.4149 678.472 60.849 677.993 63.2431C677.514 65.5575 676.676 67.6723 675.479 69.5876C674.362 71.4231 672.806 72.8995 670.81 74.0168C668.895 75.1341 666.501 75.6927 663.628 75.6927C660.755 75.6927 658.361 75.1341 656.446 74.0168C654.53 72.8995 652.974 71.4231 651.777 69.5876C650.66 67.6723 649.862 65.5575 649.383 63.2431C648.904 60.849 648.665 58.4149 648.665 55.941ZM631.666 55.941C631.666 60.8889 632.424 65.358 633.94 69.3482C635.457 73.3385 637.612 76.7701 640.405 79.6431C643.198 82.4362 646.55 84.591 650.46 86.1073C654.371 87.6236 658.76 88.3817 663.628 88.3817C668.496 88.3817 672.885 87.6236 676.796 86.1073C680.786 84.591 684.178 82.4362 686.971 79.6431C689.764 76.7701 691.919 73.3385 693.435 69.3482C694.951 65.358 695.71 60.8889 695.71 55.941C695.71 50.9931 694.951 46.524 693.435 42.5337C691.919 38.4637 689.764 35.032 686.971 32.2389C684.178 29.3659 680.786 27.1712 676.796 25.6549C672.885 24.0588 668.496 23.2608 663.628 23.2608C658.76 23.2608 654.371 24.0588 650.46 25.6549C646.55 27.1712 643.198 29.3659 640.405 32.2389C637.612 35.032 635.457 38.4637 633.94 42.5337C632.424 46.524 631.666 50.9931 631.666 55.941Z" fill="#D4D4D4"/>
        <path d="M718.852 55.941C718.852 53.467 719.092 51.033 719.571 48.6388C720.049 46.2447 720.848 44.1298 721.965 42.2943C723.162 40.4588 724.718 38.9824 726.633 37.8651C728.549 36.668 730.943 36.0695 733.816 36.0695C736.689 36.0695 739.083 36.668 740.998 37.8651C742.993 38.9824 744.55 40.4588 745.667 42.2943C746.864 44.1298 747.702 46.2447 748.181 48.6388C748.66 51.033 748.899 53.467 748.899 55.941C748.899 58.4149 748.66 60.849 748.181 63.2431C747.702 65.5575 746.864 67.6723 745.667 69.5876C744.55 71.4231 742.993 72.8995 740.998 74.0168C739.083 75.1341 736.689 75.6927 733.816 75.6927C730.943 75.6927 728.549 75.1341 726.633 74.0168C724.718 72.8995 723.162 71.4231 721.965 69.5876C720.848 67.6723 720.049 65.5575 719.571 63.2431C719.092 60.849 718.852 58.4149 718.852 55.941ZM701.854 55.941C701.854 60.8889 702.612 65.358 704.128 69.3482C705.645 73.3385 707.799 76.7701 710.593 79.6431C713.386 82.4362 716.738 84.591 720.648 86.1073C724.558 87.6236 728.948 88.3817 733.816 88.3817C738.684 88.3817 743.073 87.6236 746.984 86.1073C750.974 84.591 754.366 82.4362 757.159 79.6431C759.952 76.7701 762.107 73.3385 763.623 69.3482C765.139 65.358 765.898 60.8889 765.898 55.941C765.898 50.9931 765.139 46.524 763.623 42.5337C762.107 38.4637 759.952 35.032 757.159 32.2389C754.366 29.3659 750.974 27.1712 746.984 25.6549C743.073 24.0588 738.684 23.2608 733.816 23.2608C728.948 23.2608 724.558 24.0588 720.648 25.6549C716.738 27.1712 713.386 29.3659 710.593 32.2389C707.799 35.032 705.645 38.4637 704.128 42.5337C702.612 46.524 701.854 50.9931 701.854 55.941Z" fill="#D4D4D4"/>
        <path d="M805.201 75.6927C802.487 75.6927 800.173 75.1341 798.258 74.0168C796.342 72.8995 794.786 71.463 793.589 69.7073C792.472 67.8718 791.634 65.757 791.075 63.3628C790.597 60.9687 790.357 58.5346 790.357 56.0607C790.357 53.5069 790.597 51.033 791.075 48.6388C791.554 46.2447 792.352 44.1298 793.47 42.2943C794.667 40.4588 796.183 38.9824 798.018 37.8651C799.934 36.668 802.288 36.0695 805.081 36.0695C807.795 36.0695 810.069 36.668 811.905 37.8651C813.82 38.9824 815.376 40.4987 816.573 42.414C817.77 44.2495 818.608 46.3644 819.087 48.7585C819.646 51.1527 819.925 53.5867 819.925 56.0607C819.925 58.5346 819.685 60.9687 819.207 63.3628C818.728 65.757 817.89 67.8718 816.693 69.7073C815.576 71.463 814.059 72.8995 812.144 74.0168C810.308 75.1341 807.994 75.6927 805.201 75.6927ZM773.957 24.9367V108.493H790.956V79.1642H791.195C793.27 82.1968 795.904 84.5112 799.096 86.1073C802.368 87.6236 805.919 88.3817 809.75 88.3817C814.299 88.3817 818.249 87.5039 821.601 85.7481C825.032 83.9924 827.866 81.6382 830.1 78.6854C832.414 75.7326 834.13 72.3409 835.247 68.5103C836.365 64.6796 836.923 60.6894 836.923 56.5395C836.923 52.1502 836.365 47.9605 835.247 43.9702C834.13 39.9002 832.414 36.3488 830.1 33.3162C827.786 30.2836 824.873 27.8496 821.361 26.0141C817.85 24.1786 813.66 23.2608 808.792 23.2608C804.961 23.2608 801.45 24.0189 798.258 25.5352C795.066 27.0515 792.432 29.4856 790.357 32.8374H790.118V24.9367H773.957Z" fill="#D4D4D4"/>
        <path d="M109 54.5C109 46.8966 104.321 40.3034 97.3556 36.741C99.8015 29.3502 98.419 21.3215 93.0488 15.9512C87.6785 10.581 79.6498 9.19854 72.259 11.6444C68.7498 4.67903 62.1034 0 54.5 0C46.8966 0 40.3034 4.67903 36.7941 11.6444C29.3502 9.19854 21.3215 10.581 15.9512 15.9512C10.581 21.3215 9.25171 29.3502 11.6976 36.741C4.7322 40.3034 0 46.8966 0 54.5C0 62.1034 4.7322 68.6966 11.6976 72.259C9.25171 79.6498 10.581 87.6785 15.9512 93.0488C21.3215 98.419 29.3502 99.7483 36.741 97.3556C40.3034 104.321 46.8966 109 54.5 109C62.1034 109 68.7498 104.321 72.259 97.3556C79.6498 99.7483 87.6785 98.419 93.0488 93.0488C98.419 87.6785 99.8015 79.6498 97.3556 72.259C104.321 68.6966 109 62.1034 109 54.5ZM46.7371 76.8317L26.8512 56.9459L34.3483 49.3956L46.3649 61.4122L71.8868 33.6039L79.7029 40.8351L46.7371 76.8317Z" fill="#6364FF"/>
    </symbol>
<use xlink:href="#logo-symbol-wordmark" style="color:#fff"/>
</svg>

