<svg width="79" height="79" viewBox="0 0 79 79" fill="none" xmlns="http://www.w3.org/2000/svg">
<path d="M79 39.5C79 33.9893 75.6088 29.2107 70.5605 26.6288C72.3332 21.2722 71.3312 15.4532 67.439 11.561C63.5468 7.66878 57.7278 6.66683 52.3712 8.43951C49.8278 3.39122 45.0107 0 39.5 0C33.9893 0 29.2107 3.39122 26.6673 8.43951C21.2722 6.66683 15.4532 7.66878 11.561 11.561C7.66878 15.4532 6.70537 21.2722 8.47805 26.6288C3.42976 29.2107 0 33.9893 0 39.5C0 45.0107 3.42976 49.7893 8.47805 52.3712C6.70537 57.7278 7.66878 63.5468 11.561 67.439C15.4532 71.3312 21.2722 72.2946 26.6288 70.5605C29.2107 75.6088 33.9893 79 39.5 79C45.0107 79 49.8278 75.6088 52.3712 70.5605C57.7278 72.2946 63.5468 71.3312 67.439 67.439C71.3312 63.5468 72.3332 57.7278 70.5605 52.3712C75.6088 49.7893 79 45.0107 79 39.5ZM33.8737 55.6854L19.461 41.2727L24.8946 35.8005L33.6039 44.5098L52.1015 24.3551L57.7663 29.5961L33.8737 55.6854Z" fill="#303030"/>
</svg>
