<svg width="109" height="109" viewBox="0 0 109 109" fill="none" xmlns="http://www.w3.org/2000/svg">
    <path d="M109 54.5C109 46.8966 104.321 40.3034 97.3556 36.741C99.8015 29.3502 98.419 21.3215 93.0488 15.9512C87.6785 10.581 79.6498 9.19854 72.259 11.6444C68.7498 4.67903 62.1034 0 54.5 0C46.8966 0 40.3034 4.67903 36.7941 11.6444C29.3502 9.19854 21.3215 10.581 15.9512 15.9512C10.581 21.3215 9.25171 29.3502 11.6976 36.741C4.7322 40.3034 0 46.8966 0 54.5C0 62.1034 4.7322 68.6966 11.6976 72.259C9.25171 79.6498 10.581 87.6785 15.9512 93.0488C21.3215 98.419 29.3502 99.7483 36.741 97.3556C40.3034 104.321 46.8966 109 54.5 109C62.1034 109 68.7498 104.321 72.259 97.3556C79.6498 99.7483 87.6785 98.419 93.0488 93.0488C98.419 87.6785 99.8015 79.6498 97.3556 72.259C104.321 68.6966 109 62.1034 109 54.5ZM46.7371 76.8317L26.8512 56.9459L34.3483 49.3956L46.3649 61.4122L71.8868 33.6039L79.7029 40.8351L46.7371 76.8317Z" fill="#6364FF"/>
</svg>
